<svg id="svg" version="1.1" xmlns="http://www.w3.org/2000/svg" xmlns:xlink="http://www.w3.org/1999/xlink" width="400" height="400" viewBox="0, 0, 400,400"><g id="svgg"><path id="path0" d="M85.200 37.600 C 84.870 37.813,84.105 37.991,83.500 37.994 C 82.895 37.997,82.400 38.180,82.400 38.400 C 82.400 38.620,82.051 38.800,81.624 38.800 C 81.197 38.800,80.736 38.980,80.600 39.200 C 80.464 39.420,80.003 39.600,79.576 39.600 C 79.149 39.600,78.800 39.780,78.800 40.000 C 78.800 40.220,78.530 40.400,78.200 40.400 C 77.870 40.400,77.600 40.580,77.600 40.800 C 77.600 41.020,77.412 41.200,77.183 41.200 C 76.722 41.200,76.317 41.513,73.987 43.669 C 73.114 44.476,72.400 45.342,72.400 45.592 C 72.400 45.842,72.220 45.936,72.000 45.800 C 71.780 45.664,71.600 45.799,71.600 46.101 C 71.600 46.402,71.240 47.036,70.800 47.508 C 70.360 47.980,70.000 48.644,70.000 48.983 C 70.000 49.322,69.820 49.600,69.600 49.600 C 69.380 49.600,69.200 49.960,69.200 50.400 C 69.200 50.840,69.020 51.200,68.800 51.200 C 68.580 51.200,68.400 51.729,68.400 52.376 C 68.400 53.023,68.220 53.664,68.000 53.800 C 67.780 53.936,67.600 55.397,67.600 57.047 C 67.600 58.697,67.457 59.959,67.283 59.851 C 67.109 59.744,66.940 59.999,66.908 60.420 C 66.877 60.840,67.019 61.288,67.225 61.416 C 67.431 61.543,67.600 62.807,67.600 64.224 C 67.600 65.675,67.775 66.800,68.000 66.800 C 68.220 66.800,68.400 67.340,68.400 68.000 C 68.400 68.660,68.580 69.200,68.800 69.200 C 69.020 69.200,69.200 69.560,69.200 70.000 C 69.200 70.440,69.380 70.800,69.600 70.800 C 69.820 70.800,70.000 71.160,70.000 71.600 C 70.000 72.040,70.180 72.400,70.400 72.400 C 70.620 72.400,70.800 72.642,70.800 72.938 C 70.800 73.234,71.160 73.802,71.600 74.200 C 72.040 74.598,72.400 75.082,72.400 75.275 C 72.400 75.718,75.060 78.400,75.498 78.400 C 75.677 78.400,76.083 78.760,76.400 79.200 C 76.717 79.640,77.282 80.000,77.655 80.000 C 78.028 80.000,78.393 80.141,78.467 80.313 C 78.700 80.862,81.616 82.400,82.423 82.400 C 82.850 82.400,83.200 82.580,83.200 82.800 C 83.200 83.020,84.100 83.200,85.200 83.200 C 86.300 83.200,87.200 83.380,87.200 83.600 C 87.200 83.835,88.600 84.000,90.600 84.000 C 92.600 84.000,94.000 83.835,94.000 83.600 C 94.000 83.380,94.722 83.200,95.605 83.200 C 96.488 83.200,97.523 83.033,97.905 82.829 C 98.287 82.625,98.932 82.354,99.338 82.227 C 99.744 82.100,100.167 81.649,100.278 81.225 C 100.389 80.801,101.046 80.182,101.740 79.851 C 103.681 78.923,107.465 75.354,109.170 72.844 C 110.015 71.600,111.177 70.229,111.753 69.797 C 112.430 69.288,112.800 68.628,112.800 67.929 C 112.800 67.334,112.980 66.736,113.200 66.600 C 113.438 66.453,113.600 63.929,113.600 60.376 C 113.600 56.659,113.449 54.400,113.200 54.400 C 112.980 54.400,112.800 53.860,112.800 53.200 C 112.800 52.540,112.620 52.000,112.400 52.000 C 112.180 52.000,112.000 51.460,112.000 50.800 C 112.000 50.140,111.820 49.600,111.600 49.600 C 111.380 49.600,111.200 49.330,111.200 49.000 C 111.200 48.670,111.020 48.400,110.800 48.400 C 110.580 48.400,110.400 48.130,110.400 47.800 C 110.400 47.470,110.250 47.200,110.068 47.200 C 109.885 47.200,109.480 46.710,109.168 46.111 C 108.424 44.683,106.086 42.338,104.700 41.628 C 104.095 41.318,103.600 40.915,103.600 40.732 C 103.600 40.550,103.240 40.400,102.800 40.400 C 102.360 40.400,102.000 40.220,102.000 40.000 C 102.000 39.780,101.640 39.600,101.200 39.600 C 100.760 39.600,100.400 39.420,100.400 39.200 C 100.400 38.980,100.040 38.800,99.600 38.800 C 99.160 38.800,98.800 38.620,98.800 38.400 C 98.800 38.180,98.181 38.000,97.424 38.000 C 96.667 38.000,95.936 37.820,95.800 37.600 C 95.480 37.082,86.001 37.082,85.200 37.600 M327.400 278.800 C 327.264 279.020,326.801 279.200,326.370 279.200 C 324.864 279.200,322.389 280.204,322.167 280.905 C 322.043 281.295,321.236 281.973,320.374 282.413 C 318.370 283.436,314.104 287.642,312.579 290.099 C 311.930 291.144,311.219 291.999,310.998 291.999 C 310.594 292.000,310.131 292.971,309.265 295.628 C 308.274 298.673,308.754 307.531,310.049 310.095 C 310.242 310.477,310.400 311.062,310.400 311.395 C 310.400 311.728,310.580 312.000,310.800 312.000 C 311.020 312.000,311.200 312.360,311.200 312.800 C 311.200 313.240,311.380 313.600,311.600 313.600 C 311.820 313.600,312.000 313.867,312.000 314.193 C 312.000 314.519,312.439 315.284,312.975 315.893 C 313.512 316.502,314.521 317.675,315.217 318.500 C 315.913 319.325,316.668 320.000,316.895 320.000 C 317.121 320.000,317.597 320.335,317.953 320.745 C 318.702 321.607,321.801 323.269,324.400 324.202 C 328.424 325.648,340.424 325.179,341.439 323.537 C 341.554 323.351,341.997 323.200,342.424 323.200 C 342.851 323.200,343.200 323.042,343.200 322.849 C 343.200 322.655,343.740 322.273,344.400 322.000 C 345.060 321.727,345.600 321.357,345.600 321.178 C 345.600 321.000,345.957 320.741,346.393 320.602 C 347.401 320.282,350.400 317.420,350.400 316.778 C 350.400 316.512,350.715 316.003,351.100 315.647 C 352.007 314.809,353.600 311.877,353.600 311.046 C 353.600 310.690,353.780 310.400,354.000 310.400 C 354.220 310.400,354.400 309.875,354.400 309.233 C 354.400 308.592,354.595 308.002,354.834 307.922 C 355.429 307.724,355.423 295.874,354.828 295.676 C 354.593 295.598,354.400 295.019,354.400 294.390 C 354.400 293.762,354.220 293.136,354.000 293.000 C 353.780 292.864,353.600 292.403,353.600 291.976 C 353.600 291.549,353.420 291.200,353.200 291.200 C 352.980 291.200,352.800 290.964,352.800 290.675 C 352.800 290.387,352.440 289.764,352.000 289.292 C 351.560 288.820,351.200 288.270,351.200 288.070 C 351.200 287.496,347.116 283.460,345.900 282.832 C 345.295 282.520,344.800 282.115,344.800 281.932 C 344.800 281.750,344.440 281.600,344.000 281.600 C 343.560 281.600,343.200 281.420,343.200 281.200 C 343.200 280.980,342.840 280.800,342.400 280.800 C 341.960 280.800,341.600 280.620,341.600 280.400 C 341.600 280.180,341.251 280.000,340.824 280.000 C 340.397 280.000,339.936 279.820,339.800 279.600 C 339.664 279.380,339.034 279.200,338.400 279.200 C 337.766 279.200,337.136 279.020,337.000 278.800 C 336.859 278.571,334.804 278.400,332.200 278.400 C 329.596 278.400,327.541 278.571,327.400 278.800 " stroke="none" fill="#df8b30" fill-rule="evenodd"></path><path id="path1" d="M200.600 325.177 C 199.123 325.834,198.205 326.143,197.507 326.217 C 197.126 326.257,196.541 326.517,196.207 326.794 C 195.873 327.071,195.600 327.191,195.600 327.059 C 195.600 326.928,194.692 327.356,193.582 328.010 C 192.473 328.665,191.419 329.200,191.242 329.200 C 191.064 329.200,190.354 329.740,189.663 330.400 C 188.972 331.060,188.233 331.600,188.019 331.600 C 187.504 331.600,180.000 339.116,180.000 339.632 C 180.000 339.853,179.817 340.251,179.594 340.517 C 178.004 342.411,175.600 347.007,175.600 348.154 C 175.600 348.484,175.420 348.864,175.200 349.000 C 174.980 349.136,174.800 349.867,174.800 350.624 C 174.800 351.381,174.620 352.000,174.400 352.000 C 174.180 352.000,174.000 352.709,174.000 353.576 C 174.000 354.443,173.820 355.264,173.600 355.400 C 173.359 355.549,173.200 358.337,173.200 362.424 C 173.200 366.675,173.349 369.200,173.600 369.200 C 173.820 369.200,174.000 370.010,174.000 371.000 C 174.000 371.990,174.180 372.800,174.400 372.800 C 174.620 372.800,174.800 373.252,174.800 373.805 C 174.800 374.358,174.966 375.123,175.168 375.505 C 175.371 375.887,176.028 377.415,176.628 378.900 C 177.229 380.385,177.873 381.600,178.060 381.600 C 178.247 381.600,178.400 381.960,178.400 382.400 C 178.400 382.840,178.580 383.200,178.800 383.200 C 179.020 383.200,179.200 383.426,179.200 383.702 C 179.200 383.978,179.920 384.969,180.800 385.903 C 181.680 386.837,182.400 387.698,182.400 387.816 C 182.400 388.200,186.062 391.600,186.476 391.600 C 186.698 391.600,187.383 392.140,188.000 392.800 C 188.617 393.460,189.409 394.000,189.760 394.000 C 190.112 394.000,190.400 394.150,190.400 394.332 C 190.400 394.515,190.895 394.920,191.500 395.232 C 192.105 395.544,192.690 395.889,192.800 395.999 C 193.276 396.477,194.839 397.200,195.395 397.200 C 195.728 397.200,196.000 397.380,196.000 397.600 C 196.000 397.820,196.450 398.000,197.000 398.000 C 197.550 398.000,198.000 398.180,198.000 398.400 C 198.000 398.620,198.525 398.800,199.167 398.800 C 199.808 398.800,200.408 399.025,200.500 399.300 C 200.628 399.683,203.129 399.800,211.200 399.800 C 219.271 399.800,221.772 399.683,221.900 399.300 C 221.992 399.025,222.592 398.800,223.233 398.800 C 223.875 398.800,224.400 398.620,224.400 398.400 C 224.400 398.180,224.940 398.000,225.600 398.000 C 226.260 398.000,226.800 397.820,226.800 397.600 C 226.800 397.380,227.160 397.200,227.600 397.200 C 228.040 397.200,228.400 397.020,228.400 396.800 C 228.400 396.580,228.760 396.400,229.200 396.400 C 229.640 396.400,230.000 396.220,230.000 396.000 C 230.000 395.780,230.320 395.600,230.712 395.600 C 231.103 395.600,231.683 395.240,232.000 394.800 C 232.317 394.360,232.801 394.000,233.075 394.000 C 233.349 394.000,234.239 393.415,235.054 392.700 C 238.711 389.490,240.800 387.454,240.800 387.102 C 240.800 386.893,241.340 386.217,242.000 385.600 C 242.660 384.983,243.200 384.268,243.200 384.011 C 243.200 383.753,243.472 383.271,243.804 382.939 C 244.136 382.607,244.305 382.170,244.180 381.968 C 244.055 381.765,244.115 381.600,244.314 381.600 C 244.512 381.600,245.108 380.745,245.637 379.700 C 246.167 378.655,246.735 377.740,246.900 377.667 C 247.065 377.593,247.200 377.008,247.200 376.367 C 247.200 375.725,247.380 375.200,247.600 375.200 C 247.820 375.200,248.000 374.660,248.000 374.000 C 248.000 373.340,248.146 372.800,248.325 372.800 C 248.504 372.800,248.695 371.949,248.748 370.909 C 248.802 369.869,249.025 368.908,249.243 368.774 C 250.048 368.276,249.191 352.000,248.360 352.000 C 248.162 352.000,248.000 351.359,248.000 350.576 C 248.000 349.729,247.838 349.253,247.600 349.400 C 247.380 349.536,247.200 349.282,247.200 348.836 C 247.200 348.389,246.840 347.383,246.400 346.600 C 245.960 345.817,245.600 344.945,245.600 344.663 C 245.600 344.381,245.240 343.764,244.800 343.292 C 244.360 342.820,244.000 342.196,244.000 341.905 C 244.000 341.614,243.640 341.117,243.200 340.800 C 242.760 340.483,242.400 339.993,242.400 339.712 C 242.400 339.430,242.220 339.200,242.000 339.200 C 241.780 339.200,241.600 339.012,241.600 338.783 C 241.600 338.119,235.058 331.200,234.430 331.200 C 234.262 331.200,233.601 330.750,232.962 330.200 C 232.323 329.651,231.575 329.201,231.300 329.200 C 231.025 329.200,230.800 329.020,230.800 328.800 C 230.800 328.580,230.440 328.400,230.000 328.400 C 229.560 328.400,229.200 328.241,229.200 328.047 C 229.200 327.852,228.795 327.595,228.300 327.475 C 227.805 327.355,225.870 326.689,224.000 325.995 C 221.488 325.062,220.344 324.821,219.620 325.069 C 219.081 325.254,216.757 325.276,214.455 325.119 C 212.154 324.961,210.154 324.905,210.011 324.993 C 209.638 325.224,204.025 325.238,202.600 325.012 C 201.940 324.907,201.040 324.982,200.600 325.177 " stroke="none" fill="#7484bc" fill-rule="evenodd"></path><path id="path2" d="M284.871 95.659 C 261.732 118.791,242.800 137.936,242.800 138.203 C 242.800 138.470,244.148 139.816,245.794 141.195 C 247.441 142.574,249.556 144.621,250.494 145.743 C 254.268 150.257,254.257 150.253,256.324 147.969 C 258.705 145.338,263.200 140.745,263.200 140.943 C 263.200 141.122,269.093 135.258,276.268 127.941 C 278.285 125.883,282.464 121.725,285.554 118.700 C 288.644 115.675,291.080 113.200,290.965 113.200 C 290.851 113.200,292.029 111.985,293.582 110.500 C 297.219 107.022,307.022 97.219,310.500 93.582 C 311.985 92.029,313.200 90.840,313.200 90.941 C 313.200 91.132,319.922 84.432,326.243 77.941 C 328.246 75.883,331.523 72.670,333.525 70.800 C 337.803 66.804,337.841 66.626,335.077 63.670 C 332.352 60.757,330.853 58.762,329.239 55.900 C 328.525 54.635,327.716 53.600,327.441 53.600 C 327.166 53.600,308.009 72.526,284.871 95.659 M109.904 71.900 C 108.174 74.468,103.545 78.999,101.810 79.822 C 100.933 80.238,100.400 80.776,100.400 81.244 C 100.400 82.402,167.852 149.704,168.722 149.413 C 169.095 149.289,169.940 148.456,170.600 147.562 C 171.779 145.966,175.820 141.948,178.222 139.983 C 178.894 139.433,179.567 138.664,179.716 138.274 C 180.027 137.463,112.915 70.000,111.797 70.000 C 111.460 70.000,110.608 70.855,109.904 71.900 M115.100 265.320 C 86.335 294.145,62.800 317.873,62.800 318.049 C 62.800 318.226,63.813 319.502,65.050 320.885 C 67.228 323.319,70.433 327.844,71.577 330.100 C 72.370 331.662,72.389 331.652,77.252 326.900 C 85.144 319.189,91.128 313.200,90.941 313.200 C 90.840 313.200,92.029 311.985,93.582 310.500 C 97.219 307.022,107.022 297.219,110.500 293.582 C 111.985 292.029,113.200 290.840,113.200 290.941 C 113.200 291.122,119.075 285.276,126.268 277.941 C 128.285 275.883,132.464 271.725,135.554 268.700 C 138.644 265.675,141.080 263.200,140.965 263.200 C 140.851 263.200,142.029 261.985,143.582 260.500 C 147.219 257.022,157.022 247.219,160.500 243.582 C 161.985 242.029,163.200 240.840,163.200 240.941 C 163.200 241.177,171.559 232.795,176.100 228.004 C 180.039 223.849,180.104 223.682,178.300 222.296 C 176.467 220.887,172.043 216.517,170.407 214.500 C 169.535 213.425,168.729 212.820,168.214 212.855 C 167.705 212.890,147.817 232.534,115.100 265.320 M248.300 218.435 C 245.275 221.491,242.800 224.082,242.800 224.194 C 242.800 224.650,310.447 292.000,310.905 291.999 C 311.177 291.999,311.930 291.144,312.579 290.099 C 314.104 287.642,318.370 283.436,320.374 282.413 C 323.520 280.808,325.447 283.008,288.828 246.406 C 268.395 225.984,254.930 212.816,254.503 212.840 C 254.116 212.862,251.325 215.380,248.300 218.435 M203.300 233.897 C 202.406 234.200,202.586 324.700,203.481 324.873 C 203.856 324.945,205.746 324.842,207.681 324.645 C 209.752 324.434,212.641 324.433,214.700 324.643 C 216.625 324.839,218.605 324.942,219.100 324.872 L 220.000 324.744 220.000 279.372 C 220.000 254.417,219.865 233.973,219.700 233.939 C 218.944 233.786,203.743 233.747,203.300 233.897 " stroke="none" fill="#444c64" fill-rule="evenodd"></path><path id="path3" d="M203.406 128.010 C 203.551 128.245,202.796 128.400,201.504 128.400 C 200.325 128.400,199.189 128.569,198.980 128.775 C 198.771 128.982,198.150 129.224,197.600 129.314 C 197.050 129.404,196.330 129.593,196.000 129.734 C 195.670 129.875,195.040 130.056,194.600 130.136 C 194.160 130.216,193.350 130.467,192.800 130.694 C 192.250 130.921,191.665 131.027,191.500 130.929 C 191.335 130.832,191.200 130.943,191.200 131.176 C 191.200 131.409,190.840 131.600,190.400 131.600 C 189.960 131.600,189.600 131.780,189.600 132.000 C 189.600 132.220,189.240 132.400,188.800 132.400 C 188.360 132.400,187.999 132.535,187.997 132.700 C 187.993 133.059,186.056 134.000,185.320 134.000 C 185.034 134.000,184.800 134.180,184.800 134.400 C 184.800 134.620,184.455 134.800,184.033 134.800 C 183.612 134.800,183.207 134.935,183.133 135.100 C 183.060 135.265,182.312 135.914,181.471 136.542 C 180.630 137.171,179.830 137.977,179.693 138.334 C 179.556 138.691,178.894 139.433,178.222 139.983 C 175.820 141.948,171.779 145.966,170.600 147.562 C 169.940 148.456,169.048 149.303,168.619 149.446 C 167.609 149.781,166.800 150.599,166.800 151.283 C 166.800 151.580,166.440 152.083,166.000 152.400 C 165.560 152.717,165.200 153.297,165.200 153.688 C 165.200 154.080,165.064 154.400,164.898 154.400 C 164.731 154.400,164.343 154.985,164.035 155.700 C 163.727 156.415,163.143 157.478,162.737 158.062 C 162.332 158.646,162.000 159.501,162.000 159.962 C 162.000 160.423,161.853 160.800,161.672 160.800 C 161.492 160.800,161.096 161.711,160.793 162.825 C 160.490 163.939,160.097 164.940,159.921 165.049 C 159.744 165.158,159.600 165.856,159.600 166.600 C 159.600 167.344,159.431 168.057,159.225 168.184 C 159.019 168.312,158.835 168.727,158.815 169.108 C 158.576 173.783,158.264 177.075,158.031 177.400 C 157.541 178.082,157.483 184.400,157.967 184.400 C 158.237 184.400,158.405 185.495,158.414 187.300 C 158.422 188.895,158.704 191.370,159.041 192.800 C 159.378 194.230,159.678 195.793,159.707 196.273 C 159.736 196.754,159.947 197.114,160.176 197.073 C 160.404 197.033,160.535 197.495,160.467 198.100 C 160.399 198.705,160.536 199.200,160.771 199.200 C 161.007 199.200,161.200 199.645,161.200 200.188 C 161.200 200.731,161.560 201.817,162.000 202.600 C 162.440 203.383,162.800 204.289,162.800 204.612 C 162.800 204.935,162.980 205.200,163.200 205.200 C 163.420 205.200,163.600 205.393,163.600 205.629 C 163.600 205.864,163.872 206.329,164.204 206.661 C 164.536 206.993,164.705 207.430,164.580 207.632 C 164.455 207.835,164.543 208.000,164.776 208.000 C 165.009 208.000,165.200 208.236,165.200 208.525 C 165.200 208.813,165.515 209.398,165.900 209.825 C 166.285 210.251,166.855 211.095,167.168 211.700 C 167.480 212.305,168.026 212.800,168.382 212.800 C 168.737 212.800,169.648 213.565,170.407 214.500 C 172.054 216.531,176.472 220.890,178.329 222.317 C 179.224 223.005,179.595 223.577,179.466 224.071 C 179.325 224.608,179.558 224.873,180.337 225.066 C 180.922 225.210,181.691 225.659,182.047 226.064 C 182.403 226.469,182.973 226.800,183.314 226.800 C 183.654 226.800,183.993 226.966,184.067 227.170 C 184.140 227.373,184.470 227.598,184.800 227.670 C 185.130 227.741,185.670 228.070,186.000 228.400 C 186.330 228.730,187.050 229.062,187.600 229.138 C 188.150 229.214,188.660 229.439,188.733 229.638 C 188.807 229.837,189.212 230.000,189.633 230.000 C 190.055 230.000,190.400 230.180,190.400 230.400 C 190.400 230.620,190.760 230.800,191.200 230.800 C 191.640 230.800,192.000 230.980,192.000 231.200 C 192.000 231.420,192.540 231.600,193.200 231.600 C 193.860 231.600,194.400 231.780,194.400 232.000 C 194.400 232.220,194.792 232.400,195.272 232.400 C 196.030 232.400,197.450 232.769,199.600 233.524 C 200.574 233.866,222.758 233.855,222.546 233.513 C 222.440 233.341,223.073 233.200,223.953 233.200 C 224.833 233.200,225.664 233.020,225.800 232.800 C 225.936 232.580,226.476 232.400,227.000 232.400 C 227.524 232.400,228.064 232.220,228.200 232.000 C 228.336 231.780,228.799 231.600,229.229 231.600 C 229.659 231.600,230.323 231.441,230.705 231.246 C 231.087 231.052,232.660 230.296,234.200 229.568 C 235.740 228.839,237.060 228.098,237.133 227.921 C 237.207 227.745,237.612 227.600,238.033 227.600 C 238.455 227.600,238.800 227.420,238.800 227.200 C 238.800 226.980,239.070 226.800,239.400 226.800 C 239.730 226.800,240.000 226.647,240.000 226.461 C 240.000 226.274,240.715 225.799,241.589 225.405 C 242.463 225.011,243.086 224.539,242.973 224.356 C 242.711 223.932,253.863 212.800,254.550 212.800 C 254.833 212.800,255.320 212.305,255.632 211.700 C 255.944 211.095,256.297 210.510,256.417 210.400 C 256.536 210.290,257.167 209.120,257.817 207.800 C 258.468 206.480,259.135 205.340,259.300 205.267 C 259.465 205.193,259.600 204.788,259.600 204.367 C 259.600 203.945,259.741 203.600,259.913 203.600 C 260.085 203.600,260.475 202.745,260.780 201.700 C 261.312 199.876,261.516 199.362,262.400 197.605 C 262.620 197.168,262.800 196.369,262.800 195.829 C 262.800 195.289,262.980 194.736,263.200 194.600 C 263.420 194.464,263.600 193.564,263.600 192.600 C 263.600 191.636,263.780 190.736,264.000 190.600 C 264.220 190.464,264.400 188.923,264.400 187.176 C 264.400 184.905,264.542 183.998,264.900 183.994 C 265.233 183.990,265.200 183.858,264.800 183.600 C 264.400 183.342,264.367 183.210,264.700 183.206 C 265.314 183.199,265.406 178.575,264.800 178.200 C 264.580 178.064,264.400 176.513,264.400 174.753 C 264.400 172.721,264.254 171.643,264.000 171.800 C 263.752 171.953,263.600 171.204,263.600 169.824 C 263.600 168.601,263.420 167.600,263.200 167.600 C 262.980 167.600,262.800 167.071,262.800 166.424 C 262.800 165.777,262.620 165.136,262.400 165.000 C 262.180 164.864,262.000 164.401,262.000 163.971 C 262.000 163.541,261.832 162.877,261.626 162.495 C 261.421 162.113,261.017 161.215,260.729 160.500 C 260.440 159.785,260.069 159.200,259.902 159.200 C 259.736 159.200,259.600 158.761,259.600 158.224 C 259.600 157.687,259.420 157.136,259.200 157.000 C 258.980 156.864,258.800 156.403,258.800 155.976 C 258.800 155.549,258.638 155.200,258.439 155.200 C 258.241 155.200,257.890 154.660,257.660 154.000 C 257.430 153.340,257.056 152.800,256.828 152.800 C 256.601 152.800,256.291 152.307,256.140 151.704 C 255.816 150.411,255.274 149.804,254.117 149.437 C 253.652 149.289,252.765 148.501,252.146 147.684 C 250.909 146.052,248.189 143.281,244.800 140.200 C 243.590 139.100,242.335 137.795,242.012 137.300 C 241.688 136.805,241.193 136.400,240.912 136.400 C 240.630 136.400,240.400 136.220,240.400 136.000 C 240.400 135.780,240.130 135.600,239.800 135.600 C 239.470 135.600,239.200 135.456,239.200 135.280 C 239.200 135.105,238.570 134.733,237.800 134.454 C 237.030 134.176,236.400 133.780,236.400 133.574 C 236.400 133.368,236.040 133.200,235.600 133.200 C 235.160 133.200,234.800 133.020,234.800 132.800 C 234.800 132.580,234.528 132.400,234.195 132.400 C 233.862 132.400,233.277 132.241,232.895 132.047 C 232.513 131.852,231.660 131.471,231.000 131.200 C 230.340 130.929,229.487 130.548,229.105 130.353 C 228.723 130.159,228.048 130.000,227.605 130.000 C 227.162 130.000,226.800 129.857,226.800 129.682 C 226.800 129.507,226.130 129.318,225.312 129.263 C 224.494 129.208,223.729 129.012,223.612 128.828 C 223.239 128.238,219.613 127.927,211.282 127.771 C 206.066 127.674,203.251 127.759,203.406 128.010 M64.600 320.800 C 65.459 321.680,66.252 322.400,66.362 322.400 C 66.472 322.400,65.859 321.680,65.000 320.800 C 64.141 319.920,63.348 319.200,63.238 319.200 C 63.128 319.200,63.741 319.920,64.600 320.800 M207.946 324.587 C 207.843 324.690,206.723 324.808,205.457 324.850 C 204.191 324.891,203.331 325.034,203.546 325.167 C 203.761 325.300,205.527 325.300,207.469 325.167 C 209.411 325.034,212.620 324.976,214.600 325.037 C 217.776 325.135,217.941 325.109,216.000 324.814 C 213.566 324.443,208.240 324.294,207.946 324.587 " stroke="none" fill="#4c6bab" fill-rule="evenodd"></path><path id="path4" d="M30.400 309.262 C 29.850 309.478,28.899 309.669,28.286 309.688 C 27.673 309.707,27.077 309.875,26.962 310.061 C 26.847 310.248,26.324 310.400,25.800 310.400 C 25.276 310.400,24.736 310.580,24.600 310.800 C 24.464 311.020,23.913 311.200,23.376 311.200 C 22.839 311.200,22.400 311.380,22.400 311.600 C 22.400 311.820,22.040 312.000,21.600 312.000 C 21.160 312.000,20.800 312.180,20.800 312.400 C 20.800 312.620,20.440 312.800,20.000 312.800 C 19.560 312.800,19.200 312.980,19.200 313.200 C 19.200 313.420,18.829 313.600,18.376 313.600 C 17.923 313.600,17.640 313.742,17.748 313.915 C 17.855 314.088,17.449 314.449,16.846 314.715 C 16.243 314.982,15.364 315.560,14.892 316.000 C 14.420 316.440,13.835 316.800,13.593 316.800 C 13.351 316.800,13.251 316.959,13.371 317.154 C 13.491 317.348,13.086 317.716,12.471 317.971 C 11.856 318.226,11.093 318.813,10.776 319.275 C 10.459 319.738,9.615 320.714,8.900 321.445 C 8.185 322.175,7.600 323.010,7.600 323.298 C 7.600 323.587,7.240 324.083,6.800 324.400 C 6.360 324.717,6.000 325.217,6.000 325.512 C 6.000 325.806,5.850 325.955,5.668 325.842 C 5.485 325.729,5.091 326.258,4.793 327.018 C 4.495 327.778,4.104 328.400,3.925 328.400 C 3.746 328.400,3.600 328.760,3.600 329.200 C 3.600 329.640,3.420 330.000,3.200 330.000 C 2.980 330.000,2.800 330.360,2.800 330.800 C 2.800 331.240,2.620 331.600,2.400 331.600 C 2.180 331.600,2.000 331.962,2.000 332.405 C 2.000 332.848,1.841 333.523,1.647 333.905 C 0.221 336.708,0.200 336.902,0.200 347.327 C 0.200 355.297,0.317 357.772,0.700 357.900 C 0.975 357.992,1.200 358.592,1.200 359.233 C 1.200 359.875,1.380 360.400,1.600 360.400 C 1.820 360.400,2.000 360.940,2.000 361.600 C 2.000 362.260,2.180 362.800,2.400 362.800 C 2.620 362.800,2.800 363.160,2.800 363.600 C 2.800 364.040,2.980 364.400,3.200 364.400 C 3.420 364.400,3.600 364.760,3.600 365.200 C 3.600 365.640,3.780 366.000,4.000 366.000 C 4.220 366.000,4.400 366.236,4.400 366.525 C 4.400 366.813,4.760 367.436,5.200 367.908 C 5.640 368.380,6.000 368.927,6.000 369.124 C 6.000 369.321,6.540 370.046,7.200 370.737 C 7.860 371.428,8.400 372.185,8.400 372.420 C 8.400 372.655,8.580 372.736,8.800 372.600 C 9.020 372.464,9.200 372.599,9.200 372.901 C 9.200 373.390,12.536 376.800,13.014 376.800 C 13.120 376.800,13.772 377.340,14.463 378.000 C 15.154 378.660,15.885 379.200,16.087 379.200 C 16.290 379.200,17.208 379.707,18.128 380.328 C 20.119 381.671,23.350 383.200,24.196 383.200 C 24.528 383.200,24.800 383.380,24.800 383.600 C 24.800 383.820,25.419 384.000,26.176 384.000 C 26.933 384.000,27.664 384.180,27.800 384.400 C 27.936 384.620,28.847 384.800,29.824 384.800 C 30.801 384.800,31.600 384.989,31.600 385.220 C 31.600 385.503,33.523 385.577,37.500 385.447 C 44.627 385.215,48.078 384.850,47.777 384.363 C 47.654 384.163,48.193 384.000,48.976 384.000 C 49.759 384.000,50.400 383.820,50.400 383.600 C 50.400 383.380,50.940 383.200,51.600 383.200 C 52.260 383.200,52.800 383.020,52.800 382.800 C 52.800 382.580,53.145 382.400,53.567 382.400 C 53.988 382.400,54.393 382.265,54.467 382.100 C 54.540 381.935,55.499 381.350,56.597 380.800 C 57.696 380.250,59.117 379.305,59.757 378.700 C 60.396 378.095,61.068 377.600,61.250 377.600 C 61.432 377.600,62.620 376.610,63.889 375.400 C 65.158 374.190,66.333 373.200,66.498 373.200 C 66.664 373.200,66.800 372.900,66.800 372.533 C 66.800 372.167,66.919 371.986,67.065 372.132 C 67.316 372.383,70.052 368.671,69.981 368.175 C 69.963 368.045,70.319 367.617,70.774 367.223 C 71.228 366.829,71.600 366.212,71.600 365.853 C 71.600 365.494,71.780 365.200,72.000 365.200 C 72.220 365.200,72.400 364.855,72.400 364.433 C 72.400 364.012,72.543 363.607,72.718 363.533 C 73.244 363.313,75.200 356.665,75.200 355.100 C 75.200 354.301,75.380 353.536,75.600 353.400 C 76.106 353.087,76.142 341.200,75.637 341.200 C 75.437 341.200,75.189 340.255,75.085 339.100 C 74.981 337.945,74.812 336.730,74.710 336.400 C 74.609 336.070,74.393 335.260,74.231 334.600 C 73.807 332.866,73.131 331.600,72.629 331.600 C 72.174 331.600,71.554 330.761,70.264 328.400 C 69.349 326.725,67.787 324.661,64.923 321.339 C 63.755 319.985,62.800 318.659,62.800 318.392 C 62.800 317.863,60.052 315.200,59.505 315.200 C 59.319 315.200,58.780 314.840,58.308 314.400 C 57.836 313.960,57.213 313.600,56.925 313.600 C 56.636 313.600,56.400 313.464,56.400 313.298 C 56.400 313.131,55.815 312.756,55.100 312.464 C 54.385 312.172,53.350 311.744,52.800 311.513 C 51.050 310.778,50.240 310.501,48.600 310.079 C 47.720 309.853,46.363 309.501,45.584 309.297 C 43.676 308.798,31.655 308.770,30.400 309.262 " stroke="none" fill="#54dbac" fill-rule="evenodd"></path><path id="path5" d="M353.200 0.270 C 352.430 0.373,351.629 0.624,351.420 0.829 C 351.211 1.033,350.536 1.200,349.920 1.200 C 349.304 1.200,348.800 1.380,348.800 1.600 C 348.800 1.820,348.249 2.000,347.576 2.000 C 346.863 2.000,346.456 2.167,346.600 2.400 C 346.736 2.620,346.477 2.800,346.024 2.800 C 345.571 2.800,345.200 2.980,345.200 3.200 C 345.200 3.420,344.951 3.600,344.646 3.600 C 343.816 3.600,341.973 4.640,342.273 4.939 C 342.416 5.083,342.233 5.200,341.867 5.200 C 341.500 5.200,341.200 5.380,341.200 5.600 C 341.200 5.820,340.969 6.000,340.686 6.000 C 339.660 6.000,331.432 13.792,330.432 15.711 C 330.120 16.310,329.715 16.800,329.532 16.800 C 329.350 16.800,329.200 17.083,329.200 17.429 C 329.200 17.774,328.928 18.329,328.596 18.661 C 328.264 18.993,328.095 19.430,328.220 19.632 C 328.345 19.835,328.257 20.000,328.024 20.000 C 327.791 20.000,327.600 20.236,327.600 20.525 C 327.600 20.814,327.240 21.795,326.800 22.706 C 326.360 23.616,326.000 24.629,326.000 24.957 C 326.000 25.285,325.813 25.669,325.584 25.810 C 325.355 25.952,325.277 26.412,325.411 26.834 C 325.547 27.262,325.466 27.600,325.227 27.600 C 324.982 27.600,324.800 28.442,324.800 29.576 C 324.800 30.663,324.620 31.664,324.400 31.800 C 324.162 31.947,324.000 34.471,324.000 38.024 C 324.000 41.741,324.151 44.000,324.400 44.000 C 324.620 44.000,324.800 44.900,324.800 46.000 C 324.800 47.123,324.983 48.000,325.218 48.000 C 325.447 48.000,325.590 48.225,325.535 48.500 C 325.277 49.781,326.689 53.600,327.419 53.600 C 327.706 53.600,328.525 54.635,329.239 55.900 C 330.853 58.762,332.352 60.757,335.077 63.670 C 336.245 64.919,337.200 66.271,337.200 66.676 C 337.200 67.102,337.872 67.827,338.800 68.400 C 339.680 68.944,340.400 69.505,340.400 69.648 C 340.400 69.790,340.715 70.010,341.100 70.136 C 341.485 70.262,342.700 70.916,343.800 71.590 C 345.874 72.860,347.368 73.578,348.400 73.800 C 348.730 73.871,349.450 74.099,350.000 74.307 C 350.550 74.515,351.225 74.606,351.500 74.509 C 351.775 74.412,352.000 74.528,352.000 74.767 C 352.000 75.020,352.831 75.200,354.000 75.200 C 355.100 75.200,356.000 75.380,356.000 75.600 C 356.000 75.849,358.259 76.000,361.976 76.000 C 365.529 76.000,368.053 75.838,368.200 75.600 C 368.336 75.380,369.337 75.200,370.424 75.200 C 371.530 75.200,372.400 75.016,372.400 74.782 C 372.400 74.553,372.625 74.410,372.900 74.466 C 373.564 74.600,377.967 73.176,378.236 72.741 C 378.352 72.554,378.797 72.400,379.224 72.400 C 379.651 72.400,380.000 72.209,380.000 71.976 C 380.000 71.743,380.165 71.655,380.368 71.780 C 380.570 71.905,381.007 71.736,381.339 71.404 C 381.671 71.072,382.226 70.800,382.571 70.800 C 382.917 70.800,383.200 70.650,383.200 70.468 C 383.200 70.285,383.686 69.880,384.279 69.568 C 386.198 68.559,394.000 60.329,394.000 59.314 C 394.000 59.031,394.180 58.800,394.400 58.800 C 394.620 58.800,394.800 58.500,394.800 58.133 C 394.800 57.767,394.917 57.584,395.061 57.727 C 395.365 58.031,396.400 56.179,396.400 55.331 C 396.400 55.013,396.580 54.864,396.800 55.000 C 397.027 55.140,397.200 54.804,397.200 54.224 C 397.200 53.661,397.380 53.200,397.600 53.200 C 397.820 53.200,398.000 52.761,398.000 52.224 C 398.000 51.687,398.180 51.136,398.400 51.000 C 398.620 50.864,398.800 50.349,398.800 49.856 C 398.800 49.363,399.025 48.735,399.300 48.460 C 399.674 48.086,399.800 45.395,399.800 37.800 C 399.800 30.206,399.674 27.514,399.300 27.140 C 399.025 26.865,398.800 26.226,398.800 25.720 C 398.800 25.214,398.620 24.800,398.400 24.800 C 398.180 24.800,398.000 24.260,398.000 23.600 C 398.000 22.940,397.820 22.400,397.600 22.400 C 397.380 22.400,397.200 22.040,397.200 21.600 C 397.200 21.160,397.020 20.800,396.800 20.800 C 396.580 20.800,396.400 20.440,396.400 20.000 C 396.400 19.560,396.220 19.200,396.000 19.200 C 395.780 19.200,395.600 18.840,395.600 18.400 C 395.600 17.960,395.450 17.600,395.268 17.600 C 395.085 17.600,394.681 17.105,394.370 16.500 C 394.060 15.895,393.489 15.109,393.103 14.753 C 392.716 14.397,392.400 13.802,392.400 13.429 C 392.400 13.057,392.220 12.864,392.000 13.000 C 391.780 13.136,391.600 13.082,391.600 12.881 C 391.600 12.403,387.597 8.400,387.119 8.400 C 386.918 8.400,386.864 8.220,387.000 8.000 C 387.136 7.780,386.916 7.600,386.512 7.600 C 386.107 7.600,385.517 7.240,385.200 6.800 C 384.883 6.360,384.343 6.000,384.000 6.000 C 383.657 6.000,383.117 5.640,382.800 5.200 C 382.483 4.760,381.903 4.400,381.512 4.400 C 381.120 4.400,380.800 4.220,380.800 4.000 C 380.800 3.780,380.440 3.600,380.000 3.600 C 379.560 3.600,379.200 3.420,379.200 3.200 C 379.200 2.980,378.840 2.800,378.400 2.800 C 377.960 2.800,377.600 2.620,377.600 2.400 C 377.600 2.180,377.060 2.000,376.400 2.000 C 375.740 2.000,375.200 1.820,375.200 1.600 C 375.200 1.380,374.855 1.200,374.433 1.200 C 374.012 1.200,373.593 0.980,373.504 0.711 C 373.338 0.214,356.375 -0.154,353.200 0.270 " stroke="none" fill="#44b35c" fill-rule="evenodd"></path></g></svg>