<svg id="svg" version="1.1" xmlns="http://www.w3.org/2000/svg" xmlns:xlink="http://www.w3.org/1999/xlink" width="400" height="400" viewBox="0, 0, 400,400"><g id="svgg"><path id="path0" d="M55.200 83.448 C 47.963 84.085,39.963 86.353,33.860 89.498 C 28.062 92.486,19.652 98.948,20.105 100.067 C 20.223 100.360,40.682 122.965,65.569 150.300 L 110.817 200.000 65.409 249.900 C 40.434 277.345,20.000 300.012,20.000 300.270 C 20.000 300.529,21.395 301.936,23.100 303.398 C 44.010 321.326,73.653 321.573,95.067 303.997 C 97.726 301.815,189.364 201.480,189.846 200.223 C 190.012 199.792,109.048 110.403,99.849 100.860 C 88.152 88.727,71.039 82.053,55.200 83.448 M336.600 83.438 C 322.239 84.820,309.953 90.693,300.151 100.860 C 290.952 110.403,209.988 199.792,210.154 200.223 C 210.636 201.480,302.274 301.815,304.933 303.997 C 326.347 321.573,355.990 321.326,376.900 303.398 C 378.605 301.936,380.000 300.529,380.000 300.270 C 380.000 300.012,359.566 277.345,334.591 249.900 L 289.183 200.000 334.431 150.300 C 359.318 122.965,379.777 100.360,379.895 100.067 C 380.348 98.948,371.938 92.486,366.140 89.498 C 357.658 85.128,345.328 82.598,336.600 83.438 " stroke="none" fill="#e47404" fill-rule="evenodd"></path><path id="path1" d="M111.400 44.017 C 100.276 45.251,88.619 50.545,82.120 57.315 L 80.501 59.000 140.000 124.400 C 172.724 160.370,199.724 189.800,200.000 189.800 C 200.276 189.800,227.276 160.370,260.000 124.400 L 319.499 59.000 317.880 57.315 C 303.628 42.470,276.191 39.532,257.549 50.855 C 250.350 55.227,249.651 55.927,221.616 86.800 C 209.929 99.670,200.204 110.200,200.004 110.200 C 199.804 110.200,189.278 98.860,176.614 85.000 C 163.949 71.140,152.375 58.665,150.894 57.279 C 140.249 47.315,125.703 42.430,111.400 44.017 M140.104 275.485 L 80.502 341.000 82.120 342.685 C 96.372 357.530,123.809 360.468,142.451 349.145 C 149.650 344.773,150.349 344.073,178.384 313.200 C 190.071 300.330,199.797 289.800,199.998 289.800 C 200.199 289.800,210.726 301.140,223.391 315.000 C 251.019 345.235,252.839 346.990,260.692 350.950 C 279.111 360.240,304.557 356.562,317.880 342.685 L 319.499 341.000 260.023 275.624 C 227.311 239.668,200.358 210.186,200.127 210.109 C 199.896 210.032,172.886 239.451,140.104 275.485 " stroke="none" fill="#040404" fill-rule="evenodd"></path><path id="path2" d="" stroke="none" fill="#e83c04" fill-rule="evenodd"></path><path id="path3" d="" stroke="none" fill="#e83c04" fill-rule="evenodd"></path><path id="path4" d="" stroke="none" fill="#e83c04" fill-rule="evenodd"></path></g></svg>