<svg id="svg" version="1.1" xmlns="http://www.w3.org/2000/svg" xmlns:xlink="http://www.w3.org/1999/xlink" width="400" height="421.94513715710724" viewBox="0, 0, 400,421.94513715710724"><g id="svgg"><path id="path0" d="M200.000 107.600 C 200.000 107.820,199.550 108.000,199.000 108.000 C 198.378 108.000,198.000 108.227,198.000 108.600 C 198.000 108.940,197.641 109.200,197.171 109.200 C 196.110 109.200,195.200 110.110,195.200 111.171 C 195.200 111.641,194.940 112.000,194.600 112.000 C 194.227 112.000,194.000 112.378,194.000 113.000 C 194.000 113.550,193.820 114.000,193.600 114.000 C 193.334 114.000,193.200 144.867,193.200 205.800 L 193.200 297.600 155.800 297.600 L 118.400 297.600 118.400 260.200 L 118.400 222.800 148.800 222.800 L 179.200 222.800 179.200 214.800 L 179.200 206.800 142.800 206.800 C 110.711 206.800,106.400 206.871,106.400 207.400 C 106.400 207.730,106.207 208.000,105.971 208.000 C 105.418 208.000,104.400 209.018,104.400 209.571 C 104.400 209.807,104.207 210.000,103.971 210.000 C 103.040 210.000,102.400 211.209,102.400 212.971 C 102.400 214.330,102.246 214.800,101.800 214.800 C 101.270 214.800,101.200 220.156,101.200 260.600 C 101.200 301.044,101.270 306.400,101.800 306.400 C 102.233 306.400,102.400 306.844,102.400 308.000 C 102.400 308.880,102.580 309.600,102.800 309.600 C 103.020 309.600,103.200 310.050,103.200 310.600 C 103.200 311.222,103.427 311.600,103.800 311.600 C 104.130 311.600,104.400 311.780,104.400 312.000 C 104.400 312.220,104.850 312.400,105.400 312.400 C 106.022 312.400,106.400 312.627,106.400 313.000 C 106.400 313.373,106.778 313.600,107.400 313.600 C 107.950 313.600,108.400 313.780,108.400 314.000 C 108.400 314.264,124.267 314.400,155.200 314.400 C 186.133 314.400,202.000 314.264,202.000 314.000 C 202.000 313.780,202.630 313.600,203.400 313.600 C 204.378 313.600,204.800 313.419,204.800 313.000 C 204.800 312.627,205.178 312.400,205.800 312.400 C 206.350 312.400,206.800 312.220,206.800 312.000 C 206.800 311.780,207.070 311.600,207.400 311.600 C 207.773 311.600,208.000 311.222,208.000 310.600 C 208.000 310.050,208.180 309.600,208.400 309.600 C 208.620 309.600,208.800 308.700,208.800 307.600 C 208.800 306.089,208.947 305.600,209.400 305.600 C 209.932 305.600,210.000 295.244,210.000 214.800 L 210.000 124.000 247.400 124.000 L 284.800 124.000 284.800 161.400 L 284.800 198.800 254.400 198.800 L 224.000 198.800 224.000 206.800 L 224.000 214.800 259.800 214.800 C 291.356 214.800,295.600 214.729,295.600 214.200 C 295.600 213.827,295.978 213.600,296.600 213.600 C 297.150 213.600,297.600 213.420,297.600 213.200 C 297.600 212.980,297.870 212.800,298.200 212.800 C 298.530 212.800,298.800 212.530,298.800 212.200 C 298.800 211.870,298.980 211.600,299.200 211.600 C 299.420 211.600,299.600 211.259,299.600 210.843 C 299.600 210.426,299.870 209.982,300.200 209.855 C 300.959 209.564,301.130 112.000,300.371 112.000 C 299.818 112.000,298.800 110.982,298.800 110.429 C 298.800 110.193,298.607 110.000,298.371 110.000 C 297.818 110.000,296.800 108.982,296.800 108.429 C 296.800 108.193,296.080 108.000,295.200 108.000 C 294.320 108.000,293.600 107.820,293.600 107.600 C 293.600 107.336,277.733 107.200,246.800 107.200 C 215.867 107.200,200.000 107.336,200.000 107.600 " stroke="none" fill="#ecb404" fill-rule="evenodd"></path><path id="path1" d="M362.400 33.000 C 362.400 33.330,362.670 33.600,363.000 33.600 C 363.330 33.600,363.600 33.330,363.600 33.000 C 363.600 32.670,363.330 32.400,363.000 32.400 C 362.670 32.400,362.400 32.670,362.400 33.000 M375.600 45.800 C 375.600 46.130,375.780 46.400,376.000 46.400 C 376.220 46.400,376.400 46.130,376.400 45.800 C 376.400 45.470,376.220 45.200,376.000 45.200 C 375.780 45.200,375.600 45.470,375.600 45.800 M136.000 48.613 C 136.000 48.936,136.270 49.200,136.600 49.200 C 136.930 49.200,137.200 49.039,137.200 48.843 C 137.200 48.646,136.930 48.382,136.600 48.255 C 136.235 48.115,136.000 48.255,136.000 48.613 M358.800 49.800 C 358.800 50.130,358.980 50.400,359.200 50.400 C 359.420 50.400,359.600 50.130,359.600 49.800 C 359.600 49.470,359.420 49.200,359.200 49.200 C 358.980 49.200,358.800 49.470,358.800 49.800 M161.456 69.478 C 161.005 69.928,161.181 70.400,161.800 70.400 C 162.130 70.400,162.400 70.231,162.400 70.024 C 162.400 69.519,161.775 69.158,161.456 69.478 M325.475 69.458 C 324.953 69.980,325.202 70.400,326.033 70.400 C 326.499 70.400,326.797 70.190,326.708 69.925 C 326.513 69.340,325.846 69.088,325.475 69.458 M330.477 80.430 C 330.555 80.666,330.791 80.860,331.000 80.860 C 331.209 80.860,331.445 80.666,331.523 80.430 C 331.602 80.194,331.367 80.000,331.000 80.000 C 330.633 80.000,330.398 80.194,330.477 80.430 M328.400 83.787 C 328.400 84.145,328.635 84.285,329.000 84.145 C 329.330 84.018,329.600 83.754,329.600 83.557 C 329.600 83.361,329.330 83.200,329.000 83.200 C 328.670 83.200,328.400 83.464,328.400 83.787 M171.455 85.800 C 171.219 86.417,322.568 86.771,324.167 86.157 C 324.515 86.024,324.800 85.754,324.800 85.557 C 324.800 84.863,171.722 85.105,171.455 85.800 M40.400 131.557 C 40.400 131.754,40.670 132.018,41.000 132.145 C 41.365 132.285,41.600 132.145,41.600 131.787 C 41.600 131.464,41.330 131.200,41.000 131.200 C 40.670 131.200,40.400 131.361,40.400 131.557 M25.600 148.600 C 25.600 148.930,25.780 149.200,26.000 149.200 C 26.220 149.200,26.400 148.930,26.400 148.600 C 26.400 148.270,26.220 148.000,26.000 148.000 C 25.780 148.000,25.600 148.270,25.600 148.600 M41.200 152.400 C 41.200 152.620,41.470 152.800,41.800 152.800 C 42.130 152.800,42.400 152.620,42.400 152.400 C 42.400 152.180,42.130 152.000,41.800 152.000 C 41.470 152.000,41.200 152.180,41.200 152.400 M71.300 168.500 C 71.392 168.775,71.857 168.987,72.333 168.971 C 72.810 168.956,91.661 168.911,114.224 168.871 C 141.453 168.824,155.164 168.665,155.000 168.400 C 154.602 167.756,71.085 167.856,71.300 168.500 M79.200 186.600 C 79.200 187.590,79.380 188.400,79.600 188.400 C 79.820 188.400,80.000 187.590,80.000 186.600 C 80.000 185.610,79.820 184.800,79.600 184.800 C 79.380 184.800,79.200 185.610,79.200 186.600 M79.200 263.187 C 79.200 322.213,79.301 337.136,79.700 336.983 C 80.343 336.736,80.241 189.200,79.598 189.200 C 79.335 189.200,79.200 214.391,79.200 263.187 M354.800 275.200 C 354.800 275.420,355.070 275.600,355.400 275.600 C 355.730 275.600,356.000 275.420,356.000 275.200 C 356.000 274.980,355.730 274.800,355.400 274.800 C 355.070 274.800,354.800 274.980,354.800 275.200 M364.400 289.000 C 364.400 289.330,364.670 289.600,365.000 289.600 C 365.330 289.600,365.600 289.330,365.600 289.000 C 365.600 288.670,365.330 288.400,365.000 288.400 C 364.670 288.400,364.400 288.670,364.400 289.000 M358.400 291.000 C 358.400 291.330,358.670 291.600,359.000 291.600 C 359.330 291.600,359.600 291.330,359.600 291.000 C 359.600 290.670,359.330 290.400,359.000 290.400 C 358.670 290.400,358.400 290.670,358.400 291.000 M63.292 338.475 C 63.539 339.217,64.400 339.340,64.400 338.633 C 64.400 338.285,64.115 338.000,63.767 338.000 C 63.418 338.000,63.205 338.214,63.292 338.475 M41.200 367.967 C 41.200 368.458,41.458 368.800,41.829 368.800 C 42.202 368.800,42.406 368.528,42.329 368.133 C 42.135 367.130,41.200 366.992,41.200 367.967 M268.800 368.000 C 268.800 368.444,269.067 368.800,269.400 368.800 C 269.733 368.800,270.000 368.444,270.000 368.000 C 270.000 367.556,269.733 367.200,269.400 367.200 C 269.067 367.200,268.800 367.556,268.800 368.000 M27.600 377.800 C 27.600 378.130,27.780 378.400,28.000 378.400 C 28.220 378.400,28.400 378.130,28.400 377.800 C 28.400 377.470,28.220 377.200,28.000 377.200 C 27.780 377.200,27.600 377.470,27.600 377.800 M282.800 377.800 C 282.800 378.130,282.980 378.400,283.200 378.400 C 283.420 378.400,283.600 378.130,283.600 377.800 C 283.600 377.470,283.420 377.200,283.200 377.200 C 282.980 377.200,282.800 377.470,282.800 377.800 " stroke="none" fill="#ced87c" fill-rule="evenodd"></path><path id="path2" d="M137.100 31.465 C 137.802 31.748,137.723 32.667,136.971 32.956 C 136.625 33.089,136.007 33.018,135.597 32.799 C 134.476 32.199,133.200 32.313,133.200 33.013 C 133.200 33.850,132.121 34.199,131.395 33.596 C 130.903 33.187,130.800 33.237,130.800 33.884 C 130.800 34.972,130.422 35.240,129.547 34.772 C 128.931 34.442,128.800 34.515,128.800 35.186 C 128.800 36.087,127.386 36.357,127.103 35.510 C 127.010 35.230,126.010 35.978,124.770 37.255 C 121.009 41.128,121.024 41.106,121.611 41.813 C 122.053 42.346,122.002 42.474,121.266 42.667 C 120.684 42.819,120.400 43.206,120.400 43.847 C 120.400 44.433,120.166 44.800,119.792 44.800 C 119.344 44.800,119.251 45.062,119.436 45.800 C 119.630 46.572,119.532 46.800,119.008 46.800 C 118.436 46.800,118.373 47.056,118.605 48.427 C 118.848 49.866,118.782 50.080,118.034 50.275 L 117.189 50.496 117.206 90.948 L 117.222 131.400 80.032 131.400 C 44.948 131.400,42.830 131.440,42.658 132.100 C 42.448 132.902,41.190 133.030,40.480 132.320 C 40.107 131.947,40.000 132.045,40.000 132.763 C 40.000 133.549,39.850 133.649,39.000 133.436 C 38.275 133.254,38.000 133.346,38.000 133.769 C 38.000 134.580,37.221 134.981,36.685 134.445 C 36.002 133.762,35.711 133.904,35.420 135.061 C 35.092 136.370,31.918 139.433,30.530 139.782 C 29.655 140.001,29.541 140.203,29.735 141.177 C 29.918 142.090,29.803 142.358,29.157 142.527 C 28.649 142.660,28.397 143.008,28.475 143.469 C 28.551 143.911,28.389 144.156,28.066 144.089 C 27.667 144.005,27.600 144.291,27.804 145.216 C 28.033 146.259,27.943 146.490,27.238 146.674 C 26.286 146.923,26.202 147.294,26.859 148.345 C 27.435 149.268,26.984 151.200,26.192 151.200 C 25.111 151.200,25.317 368.517,26.400 369.600 C 27.233 370.433,27.494 372.000,26.800 372.000 C 26.081 372.000,26.380 373.502,27.139 373.700 C 27.713 373.850,27.836 374.171,27.693 375.146 C 27.551 376.118,27.657 376.400,28.167 376.400 C 29.043 376.400,29.413 377.462,28.796 378.205 C 28.382 378.703,28.533 378.896,29.722 379.393 C 31.089 379.964,31.900 381.191,31.422 381.964 C 31.296 382.168,31.464 382.607,31.796 382.939 C 32.128 383.271,32.400 383.757,32.400 384.018 C 32.400 384.304,32.735 384.406,33.243 384.273 C 34.474 383.951,36.000 384.653,36.000 385.541 C 36.000 386.618,37.145 387.536,37.590 386.816 C 38.055 386.064,39.200 386.613,39.200 387.587 C 39.200 388.497,39.668 388.606,40.856 387.970 C 41.527 387.611,41.695 387.677,41.876 388.370 C 42.114 389.281,43.172 389.468,43.909 388.731 C 44.572 388.068,46.567 388.987,46.252 389.809 C 46.052 390.329,59.128 390.400,155.575 390.400 C 264.081 390.400,265.123 390.393,264.921 389.618 C 264.676 388.684,266.559 387.999,267.309 388.749 C 267.951 389.391,269.200 389.308,269.200 388.624 C 269.200 387.819,269.981 387.421,270.515 387.955 C 271.224 388.664,272.000 388.472,272.000 387.587 C 272.000 386.592,273.143 386.075,273.648 386.842 C 274.054 387.459,275.200 386.349,275.200 385.338 C 275.200 384.754,276.438 384.000,277.397 384.000 C 277.755 384.000,277.937 384.178,277.803 384.395 C 277.663 384.622,277.823 384.689,278.179 384.553 C 278.521 384.422,278.800 384.141,278.800 383.929 C 278.800 383.716,279.072 383.271,279.404 382.939 C 279.736 382.607,279.904 382.168,279.778 381.964 C 279.300 381.191,280.111 379.964,281.478 379.393 C 282.667 378.896,282.818 378.703,282.404 378.205 C 281.787 377.462,282.157 376.400,283.033 376.400 C 283.543 376.400,283.649 376.118,283.507 375.146 C 283.364 374.171,283.487 373.850,284.061 373.700 C 284.845 373.495,285.073 372.216,284.400 371.800 C 283.722 371.381,283.957 370.034,284.800 369.507 C 285.591 369.013,285.600 368.574,285.600 330.304 L 285.600 291.600 320.824 291.600 C 341.203 291.600,355.955 291.451,355.828 291.245 C 355.226 290.271,357.783 289.661,360.100 290.225 C 360.973 290.438,361.200 290.353,361.200 289.815 C 361.200 289.269,361.435 289.188,362.400 289.400 C 363.305 289.599,363.600 289.520,363.600 289.081 C 363.600 288.089,364.700 287.419,365.389 287.991 C 366.061 288.549,367.000 287.862,367.000 286.813 C 367.000 286.471,367.658 286.041,368.577 285.783 C 369.444 285.540,370.224 285.129,370.310 284.870 C 370.396 284.612,370.678 284.400,370.937 284.400 C 371.663 284.400,372.375 282.990,372.127 282.042 C 371.949 281.362,372.152 281.105,373.136 280.763 C 374.230 280.381,374.340 280.201,374.129 279.144 C 373.930 278.152,374.037 277.915,374.766 277.725 C 375.493 277.535,375.598 277.302,375.389 276.348 C 375.189 275.441,375.277 275.200,375.806 275.200 C 376.380 275.200,376.436 274.912,376.196 273.173 C 375.943 271.331,375.994 271.127,376.759 270.927 L 377.600 270.707 377.600 161.650 L 377.600 52.592 376.766 52.072 C 376.039 51.617,375.966 51.304,376.196 49.630 C 376.437 47.877,376.383 47.689,375.579 47.479 C 374.885 47.297,374.739 47.030,374.893 46.224 C 375.019 45.566,374.910 45.200,374.587 45.200 C 373.951 45.200,373.508 44.104,374.017 43.789 C 374.780 43.318,374.373 42.469,373.188 42.056 C 372.155 41.696,372.014 41.485,372.229 40.629 C 372.483 39.615,371.720 38.400,370.829 38.400 C 370.593 38.400,370.400 38.207,370.400 37.971 C 370.400 37.123,369.217 36.341,368.351 36.615 C 367.383 36.923,366.534 36.017,367.321 35.517 C 367.651 35.307,367.592 35.210,367.133 35.206 C 366.767 35.203,366.391 34.975,366.298 34.700 C 366.167 34.310,365.984 34.321,365.465 34.749 C 364.787 35.309,363.368 34.699,363.783 34.027 C 363.879 33.872,363.416 33.824,362.754 33.921 C 361.784 34.064,361.508 33.933,361.329 33.249 C 361.093 32.347,360.039 32.121,359.338 32.822 C 358.631 33.529,356.699 32.829,356.929 31.948 C 357.120 31.219,354.398 31.201,246.863 31.232 C 186.218 31.249,136.825 31.354,137.100 31.465 M248.144 47.103 C 354.494 47.003,357.200 47.019,357.200 47.749 C 357.200 48.354,357.310 48.406,357.773 48.022 C 358.803 47.168,361.764 49.963,361.052 51.116 C 360.918 51.332,361.180 51.606,361.634 51.725 C 362.323 51.905,362.389 52.074,362.030 52.744 C 361.422 53.880,361.422 268.920,362.030 270.056 C 362.390 270.728,362.323 270.895,361.619 271.079 C 361.012 271.238,360.844 271.509,361.017 272.052 C 361.359 273.131,359.094 275.347,358.003 275.001 C 357.443 274.823,357.200 274.927,357.200 275.346 C 357.200 276.113,355.658 276.618,355.080 276.040 C 354.766 275.726,342.549 275.600,312.320 275.600 L 270.000 275.600 270.000 321.520 C 270.000 348.012,270.152 367.601,270.358 367.820 C 270.920 368.416,270.108 370.127,269.392 369.852 C 268.931 369.675,268.843 369.834,269.018 370.528 C 269.318 371.723,267.499 373.772,266.394 373.483 C 265.908 373.355,265.551 373.523,265.419 373.941 C 265.123 374.872,45.880 374.778,45.679 373.847 C 45.611 373.532,45.252 373.366,44.859 373.469 C 43.935 373.710,41.890 371.665,42.131 370.741 C 42.234 370.347,42.068 369.989,41.750 369.921 C 41.024 369.765,40.894 151.102,41.620 150.860 C 42.262 150.646,44.020 148.800,43.582 148.800 C 43.372 148.800,43.200 148.518,43.200 148.173 C 43.200 147.737,43.434 147.620,43.966 147.789 C 44.388 147.923,44.848 147.845,44.990 147.616 C 45.131 147.387,45.597 147.200,46.024 147.200 C 46.519 147.200,46.800 146.926,46.800 146.443 C 46.800 145.193,46.565 145.200,90.639 145.200 L 133.213 145.200 133.106 98.010 L 133.000 50.820 134.077 50.583 C 134.932 50.395,135.179 50.085,135.277 49.077 C 135.362 48.197,135.637 47.762,136.172 47.660 C 136.596 47.580,137.200 47.257,137.514 46.943 C 137.919 46.538,138.231 46.493,138.587 46.789 C 138.933 47.076,172.973 47.174,248.144 47.103 M160.675 71.234 C 160.495 71.923,160.326 71.989,159.656 71.630 C 158.546 71.036,158.000 71.092,158.000 71.800 C 158.000 72.130,157.799 72.400,157.553 72.400 C 157.296 72.400,157.185 72.812,157.292 73.369 C 157.431 74.094,157.274 74.392,156.673 74.549 C 155.999 74.725,155.951 74.859,156.379 75.375 C 156.997 76.119,156.660 77.200,155.809 77.200 C 155.206 77.200,155.001 167.003,155.600 168.800 C 155.845 169.536,72.175 169.935,71.442 169.202 C 70.722 168.482,69.600 168.741,69.600 169.627 C 69.600 170.272,69.424 170.398,68.800 170.200 C 68.258 170.028,68.000 170.128,68.000 170.511 C 68.000 171.258,66.711 172.400,65.869 172.400 C 65.501 172.400,65.200 172.591,65.200 172.824 C 65.200 173.057,65.020 173.136,64.800 173.000 C 64.398 172.752,64.212 174.879,64.602 175.269 C 64.883 175.550,64.863 338.775,64.581 339.230 C 64.456 339.434,64.643 339.600,64.997 339.600 C 65.354 339.600,65.829 340.136,66.060 340.800 C 66.290 341.460,66.731 342.000,67.039 342.000 C 67.348 342.000,67.600 342.290,67.600 342.643 C 67.600 343.135,67.843 343.226,68.633 343.027 C 69.458 342.820,69.710 342.933,69.880 343.584 C 70.197 344.796,73.408 344.779,73.725 343.564 C 73.891 342.931,74.145 342.792,74.772 342.991 C 75.329 343.168,75.600 343.078,75.600 342.716 C 75.600 342.066,76.609 341.174,78.100 340.509 C 79.243 339.998,79.727 337.573,78.800 337.000 C 77.921 336.457,78.286 184.489,79.168 184.017 C 79.680 183.743,95.127 183.603,125.568 183.597 L 171.200 183.587 171.200 134.827 C 171.200 97.719,171.087 86.029,170.728 85.909 C 170.465 85.822,170.371 85.453,170.515 85.076 C 170.823 84.275,324.106 84.000,324.600 84.800 C 325.028 85.492,326.316 85.258,326.256 84.500 C 326.216 84.000,326.457 83.827,327.100 83.895 C 327.764 83.966,328.000 83.782,328.000 83.195 C 328.000 82.553,328.269 82.400,329.400 82.400 C 330.378 82.400,330.800 82.219,330.800 81.800 C 330.800 81.470,330.620 81.200,330.400 81.200 C 329.606 81.200,329.968 79.133,330.800 78.916 C 331.357 78.770,331.600 78.370,331.600 77.600 C 331.600 76.830,331.357 76.430,330.800 76.284 C 329.962 76.065,329.714 75.024,330.400 74.600 C 331.019 74.217,330.872 73.597,330.221 73.847 C 329.613 74.080,326.800 71.566,326.800 70.790 C 326.800 70.549,326.636 70.454,326.435 70.578 C 325.984 70.857,161.665 70.888,161.215 70.609 C 161.037 70.499,160.794 70.780,160.675 71.234 " stroke="none" fill="#75bc1c" fill-rule="evenodd"></path><path id="path3" d="M135.200 32.157 C 135.200 32.833,136.177 33.260,137.000 32.945 C 138.088 32.527,137.674 31.600,136.400 31.600 C 135.641 31.600,135.200 31.805,135.200 32.157 M356.800 32.157 C 356.800 32.758,358.594 33.375,359.218 32.989 C 360.154 32.411,359.559 31.600,358.200 31.600 C 357.271 31.600,356.800 31.787,356.800 32.157 M131.378 32.835 C 131.000 33.446,131.821 34.154,132.573 33.866 C 132.918 33.733,133.200 33.349,133.200 33.013 C 133.200 32.313,131.786 32.176,131.378 32.835 M361.275 33.100 C 361.350 33.493,361.845 33.860,362.404 33.936 C 362.952 34.012,363.704 34.344,364.075 34.676 C 364.928 35.438,365.592 35.056,365.307 33.966 C 365.122 33.259,364.883 33.170,363.744 33.384 C 362.690 33.582,362.400 33.503,362.400 33.018 C 362.400 32.678,362.117 32.400,361.771 32.400 C 361.387 32.400,361.193 32.673,361.275 33.100 M129.329 33.840 C 129.077 34.498,129.911 35.302,130.481 34.950 C 130.656 34.842,130.800 34.403,130.800 33.976 C 130.800 33.040,129.676 32.937,129.329 33.840 M127.467 34.667 C 126.916 35.217,127.229 36.000,128.000 36.000 C 128.533 36.000,128.800 35.733,128.800 35.200 C 128.800 34.429,128.017 34.116,127.467 34.667 M367.322 35.457 C 366.699 35.711,367.121 36.800,367.843 36.800 C 368.149 36.800,368.400 36.440,368.400 36.000 C 368.400 35.196,368.205 35.098,367.322 35.457 M372.200 40.800 C 371.865 41.342,372.317 42.000,373.024 42.000 C 373.341 42.000,373.600 41.640,373.600 41.200 C 373.600 40.372,372.635 40.096,372.200 40.800 M120.663 41.470 C 120.518 41.615,120.400 41.973,120.400 42.267 C 120.400 42.863,121.431 42.997,121.772 42.445 C 122.044 42.005,121.025 41.108,120.663 41.470 M119.467 43.467 C 118.979 43.954,119.191 44.800,119.800 44.800 C 120.133 44.800,120.400 44.444,120.400 44.000 C 120.400 43.203,119.974 42.960,119.467 43.467 M374.111 43.649 C 373.583 44.177,373.878 45.200,374.559 45.200 C 374.819 45.200,375.024 45.690,375.016 46.289 C 375.005 47.014,375.234 47.425,375.700 47.518 C 376.130 47.604,376.400 47.415,376.400 47.029 C 376.400 46.683,376.220 46.400,376.000 46.400 C 375.780 46.400,375.600 45.680,375.600 44.800 C 375.600 43.170,375.030 42.730,374.111 43.649 M118.400 45.967 C 118.400 46.458,118.658 46.800,119.029 46.800 C 119.402 46.800,119.606 46.528,119.529 46.133 C 119.335 45.130,118.400 44.992,118.400 45.967 M137.514 46.943 C 137.200 47.257,136.598 47.580,136.176 47.661 C 135.372 47.816,134.827 49.200,135.571 49.200 C 135.807 49.200,136.000 48.970,136.000 48.689 C 136.000 48.335,136.489 48.226,137.600 48.331 C 138.816 48.447,139.200 48.342,139.200 47.891 C 139.200 46.865,138.171 46.287,137.514 46.943 M355.867 47.067 C 355.316 47.617,355.629 48.400,356.400 48.400 C 356.933 48.400,357.200 48.133,357.200 47.600 C 357.200 46.829,356.417 46.516,355.867 47.067 M357.867 47.867 C 357.259 48.474,357.659 49.200,358.600 49.200 C 359.400 49.200,359.600 49.400,359.600 50.200 C 359.600 50.933,359.813 51.200,360.400 51.200 C 361.557 51.200,361.383 50.245,359.969 48.831 C 358.710 47.571,358.334 47.399,357.867 47.867 M117.200 49.429 C 117.200 50.742,118.538 50.625,118.728 49.296 C 118.825 48.615,118.657 48.400,118.028 48.400 C 117.405 48.400,117.200 48.655,117.200 49.429 M376.267 49.467 C 375.832 49.901,375.963 51.403,376.480 51.920 C 377.307 52.747,377.600 52.454,377.600 50.800 C 377.600 49.292,377.021 48.713,376.267 49.467 M132.871 51.467 C 133.065 52.470,134.000 52.608,134.000 51.633 C 134.000 51.142,133.742 50.800,133.371 50.800 C 132.998 50.800,132.794 51.072,132.871 51.467 M360.800 52.400 C 360.800 53.310,361.803 53.490,362.130 52.639 C 362.381 51.985,362.086 51.600,361.333 51.600 C 361.040 51.600,360.800 51.960,360.800 52.400 M162.255 69.800 C 162.407 70.194,162.242 70.400,161.776 70.400 C 161.386 70.400,161.159 70.492,161.271 70.605 C 161.537 70.871,326.065 70.868,326.331 70.602 C 326.442 70.491,326.214 70.400,325.824 70.400 C 325.358 70.400,325.193 70.194,325.345 69.800 C 325.549 69.268,316.324 69.200,243.800 69.200 C 171.276 69.200,162.051 69.268,162.255 69.800 M159.200 70.957 C 159.200 71.561,160.172 72.095,160.561 71.706 C 161.088 71.179,160.753 70.400,160.000 70.400 C 159.560 70.400,159.200 70.651,159.200 70.957 M326.800 70.813 C 326.800 71.572,329.624 74.076,330.221 73.847 C 330.985 73.554,330.968 72.400,330.200 72.400 C 329.870 72.400,329.600 72.195,329.600 71.944 C 329.600 71.329,328.365 70.428,327.500 70.413 C 327.115 70.406,326.800 70.586,326.800 70.813 M156.000 73.963 C 156.000 74.519,156.209 74.671,156.772 74.523 C 157.232 74.403,157.457 74.094,157.330 73.761 C 157.010 72.928,156.000 73.082,156.000 73.963 M330.152 74.981 C 329.867 75.723,330.283 76.400,331.024 76.400 C 331.372 76.400,331.600 76.004,331.600 75.400 C 331.600 74.301,330.532 73.992,330.152 74.981 M155.200 76.200 C 155.200 76.993,155.376 77.225,155.900 77.124 C 156.285 77.050,156.600 76.634,156.600 76.200 C 156.600 75.766,156.285 75.350,155.900 75.276 C 155.376 75.175,155.200 75.407,155.200 76.200 M330.267 79.067 C 329.854 79.479,329.952 81.200,330.387 81.200 C 330.601 81.200,330.671 80.930,330.545 80.600 C 330.399 80.220,330.550 80.000,330.957 80.000 C 331.311 80.000,331.600 79.730,331.600 79.400 C 331.600 78.791,330.754 78.579,330.267 79.067 M328.000 83.195 C 328.000 83.771,327.764 83.964,327.144 83.895 C 326.129 83.782,325.660 84.695,326.556 85.039 C 327.205 85.288,328.400 84.373,328.400 83.629 C 328.400 83.393,328.670 83.200,329.000 83.200 C 329.330 83.200,329.600 83.020,329.600 82.800 C 329.600 82.580,329.240 82.400,328.800 82.400 C 328.268 82.400,328.000 82.667,328.000 83.195 M170.667 84.667 C 170.179 85.154,170.391 86.000,171.000 86.000 C 171.330 86.000,171.600 85.820,171.600 85.600 C 171.600 85.335,197.408 85.200,248.224 85.200 C 299.204 85.200,324.764 85.066,324.600 84.800 C 324.321 84.348,171.118 84.216,170.667 84.667 M45.380 130.433 C 45.231 130.673,45.275 131.035,45.477 131.237 C 46.176 131.936,117.400 131.504,117.400 130.800 C 117.400 130.033,45.852 129.668,45.380 130.433 M41.600 131.787 C 41.600 132.174,41.361 132.291,40.900 132.129 C 40.358 131.938,40.303 131.995,40.658 132.379 C 40.909 132.652,41.447 132.811,41.853 132.733 C 42.777 132.555,43.110 131.200,42.229 131.200 C 41.883 131.200,41.600 131.464,41.600 131.787 M38.475 132.695 C 38.676 133.738,40.000 133.854,40.000 132.829 C 40.000 132.257,39.743 132.000,39.171 132.000 C 38.598 132.000,38.383 132.215,38.475 132.695 M36.476 133.900 C 36.550 134.285,36.876 134.600,37.200 134.600 C 37.524 134.600,37.850 134.285,37.924 133.900 C 38.018 133.409,37.802 133.200,37.200 133.200 C 36.598 133.200,36.382 133.409,36.476 133.900 M33.600 135.600 C 33.600 135.820,33.330 136.000,33.000 136.000 C 32.670 136.000,32.400 136.193,32.400 136.429 C 32.400 136.982,31.382 138.000,30.829 138.000 C 30.593 138.000,30.400 138.360,30.400 138.800 C 30.400 140.050,31.312 139.752,33.336 137.840 C 35.356 135.932,35.651 135.200,34.400 135.200 C 33.960 135.200,33.600 135.380,33.600 135.600 M28.400 141.933 C 28.400 142.533,28.598 142.673,29.216 142.512 C 30.154 142.267,30.057 141.463,29.067 141.271 C 28.625 141.185,28.400 141.409,28.400 141.933 M27.660 143.580 C 27.832 144.096,28.381 144.188,28.430 143.710 C 28.447 143.551,28.244 143.348,27.980 143.260 C 27.716 143.172,27.572 143.316,27.660 143.580 M26.400 146.029 C 26.400 147.054,27.724 146.938,27.925 145.895 C 28.017 145.415,27.802 145.200,27.229 145.200 C 26.657 145.200,26.400 145.457,26.400 146.029 M47.300 145.465 C 47.025 145.576,46.800 146.012,46.800 146.435 C 46.800 147.189,47.621 147.202,89.900 147.102 L 133.000 147.000 133.128 146.100 L 133.256 145.200 90.528 145.232 C 67.028 145.249,47.575 145.354,47.300 145.465 M43.200 148.167 C 43.200 148.515,43.485 148.800,43.833 148.800 C 44.540 148.800,44.417 147.939,43.675 147.692 C 43.414 147.605,43.200 147.818,43.200 148.167 M26.400 148.576 C 26.400 148.919,26.220 149.200,26.000 149.200 C 25.780 149.200,25.600 149.650,25.600 150.200 C 25.600 151.317,26.569 151.579,26.957 150.567 C 27.324 149.611,27.249 148.477,26.800 148.200 C 26.580 148.064,26.400 148.233,26.400 148.576 M41.067 151.067 C 40.920 151.213,40.814 151.708,40.832 152.167 C 40.849 152.625,40.954 152.775,41.065 152.500 C 41.176 152.225,41.522 152.000,41.833 152.000 C 42.145 152.000,42.400 151.730,42.400 151.400 C 42.400 150.791,41.554 150.579,41.067 151.067 M155.000 168.400 C 155.164 168.665,141.418 168.826,114.124 168.877 C 91.506 168.919,72.608 168.958,72.130 168.963 C 71.651 168.969,71.347 169.114,71.453 169.287 C 71.677 169.648,155.345 169.722,155.706 169.361 C 156.035 169.032,155.601 168.000,155.134 168.000 C 154.924 168.000,154.864 168.180,155.000 168.400 M68.600 169.200 C 68.308 169.672,68.687 170.400,69.224 170.400 C 69.431 170.400,69.600 170.040,69.600 169.600 C 69.600 168.756,69.018 168.524,68.600 169.200 M65.900 170.757 C 64.991 171.679,65.008 172.400,65.938 172.400 C 66.741 172.400,68.000 171.220,68.000 170.469 C 68.000 169.769,66.699 169.948,65.900 170.757 M63.452 175.700 C 62.841 177.981,63.184 338.000,63.800 338.000 C 64.130 338.000,64.400 338.300,64.400 338.667 C 64.400 339.033,64.492 339.241,64.605 339.129 C 64.886 338.847,64.860 175.620,64.578 175.165 C 64.189 174.535,63.703 174.765,63.452 175.700 M124.800 183.600 C 99.830 183.710,79.175 183.946,78.900 184.124 C 78.255 184.541,78.156 336.602,78.800 337.000 C 79.066 337.164,79.200 312.471,79.200 263.224 C 79.200 214.273,79.335 189.200,79.599 189.200 C 79.862 189.200,80.033 214.233,80.100 262.900 L 80.202 336.600 80.301 260.700 L 80.400 184.800 125.800 184.800 C 164.339 184.800,171.200 184.716,171.200 184.243 C 171.200 183.371,172.569 183.390,124.800 183.600 M80.000 186.600 C 80.000 187.590,79.820 188.400,79.600 188.400 C 79.380 188.400,79.200 187.590,79.200 186.600 C 79.200 185.610,79.380 184.800,79.600 184.800 C 79.820 184.800,80.000 185.610,80.000 186.600 M360.800 270.400 C 360.800 270.840,361.040 271.200,361.333 271.200 C 362.086 271.200,362.381 270.815,362.130 270.161 C 361.803 269.310,360.800 269.490,360.800 270.400 M376.154 271.377 C 375.791 272.322,376.161 273.382,376.905 273.525 C 377.460 273.632,377.600 273.372,377.600 272.229 C 377.600 270.751,376.616 270.171,376.154 271.377 M359.600 272.600 C 359.600 273.400,359.400 273.600,358.600 273.600 C 358.050 273.600,357.600 273.780,357.600 274.000 C 357.600 274.220,357.015 274.414,356.300 274.432 C 355.585 274.449,355.225 274.554,355.500 274.665 C 356.233 274.961,356.110 275.600,355.320 275.600 C 354.826 275.600,354.760 275.720,355.080 276.040 C 355.658 276.618,357.200 276.113,357.200 275.346 C 357.200 274.927,357.443 274.823,358.003 275.001 C 358.997 275.316,361.401 273.101,361.052 272.191 C 360.669 271.194,359.600 271.495,359.600 272.600 M375.200 275.800 C 375.200 276.130,375.470 276.400,375.800 276.400 C 376.130 276.400,376.400 276.130,376.400 275.800 C 376.400 275.470,376.130 275.200,375.800 275.200 C 375.470 275.200,375.200 275.470,375.200 275.800 M374.267 277.867 C 374.120 278.013,374.000 278.463,374.000 278.867 C 374.000 279.681,374.990 279.863,375.442 279.132 C 375.636 278.817,375.513 278.748,375.066 278.919 C 374.700 279.060,374.400 279.001,374.400 278.787 C 374.400 278.574,374.670 278.400,375.000 278.400 C 375.330 278.400,375.600 278.220,375.600 278.000 C 375.600 277.550,374.676 277.458,374.267 277.867 M372.267 281.067 C 371.716 281.617,372.029 282.400,372.800 282.400 C 373.333 282.400,373.600 282.133,373.600 281.600 C 373.600 280.829,372.817 280.516,372.267 281.067 M367.667 286.025 C 366.641 286.436,366.681 287.325,367.733 287.529 C 368.176 287.615,368.400 287.390,368.400 286.859 C 368.400 286.419,368.715 285.976,369.100 285.876 C 369.578 285.751,369.609 285.686,369.200 285.672 C 368.870 285.660,368.180 285.819,367.667 286.025 M364.080 288.080 C 363.498 288.662,363.448 289.600,364.000 289.600 C 364.220 289.600,364.400 289.330,364.400 289.000 C 364.400 288.670,364.681 288.400,365.024 288.400 C 365.367 288.400,365.536 288.220,365.400 288.000 C 365.073 287.470,364.665 287.495,364.080 288.080 M361.200 289.800 C 361.200 290.130,361.470 290.400,361.800 290.400 C 362.130 290.400,362.400 290.130,362.400 289.800 C 362.400 289.470,362.130 289.200,361.800 289.200 C 361.470 289.200,361.200 289.470,361.200 289.800 M357.600 289.921 C 355.413 290.262,355.113 291.600,357.224 291.600 C 357.976 291.600,358.400 291.394,358.400 291.029 C 358.400 290.715,358.715 290.395,359.100 290.318 C 360.205 290.095,358.824 289.729,357.600 289.921 M64.400 340.400 C 64.400 340.840,64.580 341.200,64.800 341.200 C 65.020 341.200,65.200 341.470,65.200 341.800 C 65.200 342.130,65.470 342.400,65.800 342.400 C 66.130 342.400,66.400 342.580,66.400 342.800 C 66.400 343.020,66.670 343.200,67.000 343.200 C 67.330 343.200,67.600 342.930,67.600 342.600 C 67.600 342.270,67.348 342.000,67.039 342.000 C 66.731 342.000,66.290 341.460,66.060 340.800 C 65.589 339.448,64.400 339.162,64.400 340.400 M77.644 340.713 C 76.753 341.019,75.600 342.133,75.600 342.689 C 75.600 343.446,76.717 343.309,77.653 342.436 C 78.546 341.605,78.540 340.406,77.644 340.713 M68.675 343.058 C 68.109 343.625,68.429 344.400,69.229 344.400 C 69.789 344.400,70.017 344.183,69.929 343.733 C 69.787 342.997,69.104 342.630,68.675 343.058 M73.875 343.058 C 73.309 343.625,73.629 344.400,74.429 344.400 C 74.989 344.400,75.217 344.183,75.129 343.733 C 74.987 342.997,74.304 342.630,73.875 343.058 M40.928 368.597 C 41.004 369.863,42.400 370.652,42.400 369.429 C 42.400 369.083,42.143 368.800,41.829 368.800 C 41.515 368.800,41.168 368.485,41.058 368.100 C 40.947 367.715,40.889 367.938,40.928 368.597 M270.000 368.176 C 270.000 368.519,269.715 368.800,269.367 368.800 C 269.018 368.800,268.808 369.025,268.900 369.300 C 268.992 369.575,269.301 369.800,269.588 369.800 C 270.241 369.800,270.908 368.114,270.382 367.789 C 270.172 367.659,270.000 367.833,270.000 368.176 M25.600 370.763 C 25.600 372.128,25.701 372.299,26.400 372.116 C 27.284 371.885,27.416 371.152,26.786 369.974 C 26.121 368.731,25.600 369.077,25.600 370.763 M284.480 369.680 C 283.752 370.408,283.905 371.521,284.800 372.000 C 285.539 372.395,285.600 372.304,285.600 370.814 C 285.600 369.147,285.308 368.852,284.480 369.680 M42.000 370.945 C 42.000 371.653,43.947 373.600,44.655 373.600 C 45.527 373.600,45.290 372.829,44.031 371.569 C 42.771 370.310,42.000 370.073,42.000 370.945 M268.000 370.800 C 268.000 371.020,267.730 371.200,267.400 371.200 C 267.070 371.200,266.800 371.470,266.800 371.800 C 266.800 372.130,266.620 372.400,266.400 372.400 C 266.180 372.400,266.000 372.670,266.000 373.000 C 266.000 373.940,267.141 373.704,268.219 372.542 C 269.326 371.347,269.495 370.400,268.600 370.400 C 268.270 370.400,268.000 370.580,268.000 370.800 M45.676 373.900 C 45.750 374.285,46.076 374.600,46.400 374.600 C 46.724 374.600,47.050 374.285,47.124 373.900 C 47.218 373.409,47.002 373.200,46.400 373.200 C 45.798 373.200,45.582 373.409,45.676 373.900 M264.000 374.000 C 264.000 374.949,265.009 375.074,265.357 374.167 C 265.709 373.250,265.681 373.200,264.800 373.200 C 264.267 373.200,264.000 373.467,264.000 374.000 M26.400 374.400 C 26.400 375.310,27.403 375.490,27.730 374.639 C 27.981 373.985,27.686 373.600,26.933 373.600 C 26.640 373.600,26.400 373.960,26.400 374.400 M283.494 373.839 C 283.105 374.228,283.639 375.200,284.243 375.200 C 284.549 375.200,284.800 374.840,284.800 374.400 C 284.800 373.647,284.021 373.312,283.494 373.839 M27.600 376.800 C 27.600 377.020,27.780 377.200,28.000 377.200 C 28.220 377.200,28.400 377.506,28.400 377.880 C 28.400 378.386,28.516 378.444,28.853 378.107 C 29.102 377.858,29.198 377.372,29.066 377.027 C 28.803 376.341,27.600 376.155,27.600 376.800 M282.134 377.027 C 282.002 377.372,282.098 377.858,282.347 378.107 C 282.684 378.444,282.800 378.386,282.800 377.880 C 282.800 377.506,282.980 377.200,283.200 377.200 C 283.420 377.200,283.600 377.020,283.600 376.800 C 283.600 376.155,282.397 376.341,282.134 377.027 M29.600 380.217 C 29.600 380.556,29.955 381.214,30.388 381.680 C 31.355 382.717,31.956 381.812,31.217 380.431 C 30.698 379.463,29.600 379.317,29.600 380.217 M279.983 380.431 C 279.244 381.812,279.845 382.717,280.812 381.680 C 281.245 381.214,281.600 380.556,281.600 380.217 C 281.600 379.317,280.502 379.463,279.983 380.431 M33.600 384.395 C 33.600 385.004,34.915 386.400,35.489 386.400 C 36.450 386.400,36.039 384.795,34.974 384.390 C 33.699 383.905,33.600 383.906,33.600 384.395 M275.932 384.500 C 274.943 385.297,274.706 386.400,275.524 386.400 C 276.168 386.400,277.015 385.670,277.749 384.483 C 278.151 383.832,276.745 383.845,275.932 384.500 M37.600 386.771 C 37.600 387.007,37.799 387.200,38.043 387.200 C 38.286 387.200,38.382 387.470,38.255 387.800 C 38.112 388.173,38.258 388.400,38.640 388.400 C 39.507 388.400,39.197 386.646,38.300 386.475 C 37.915 386.401,37.600 386.535,37.600 386.771 M272.267 386.667 C 271.769 387.165,271.997 388.400,272.587 388.400 C 272.945 388.400,273.085 388.165,272.945 387.800 C 272.818 387.470,272.914 387.200,273.157 387.200 C 273.401 387.200,273.600 387.410,273.600 387.667 C 273.600 387.923,273.694 388.039,273.809 387.924 C 273.925 387.809,273.905 387.419,273.767 387.057 C 273.509 386.386,272.746 386.187,272.267 386.667 M40.900 387.887 C 40.093 388.177,40.327 389.200,41.200 389.200 C 41.640 389.200,42.000 388.941,42.000 388.624 C 42.000 387.928,41.577 387.645,40.900 387.887 M269.475 387.858 C 268.909 388.425,269.229 389.200,270.029 389.200 C 270.589 389.200,270.817 388.983,270.729 388.533 C 270.587 387.797,269.904 387.430,269.475 387.858 M43.652 388.937 C 43.044 389.670,43.483 390.000,45.067 390.000 C 46.549 390.000,46.810 389.448,45.626 388.814 C 44.602 388.266,44.188 388.292,43.652 388.937 M265.300 388.665 C 264.117 389.142,264.824 390.000,266.400 390.000 C 268.054 390.000,268.347 389.707,267.520 388.880 C 267.028 388.388,266.187 388.307,265.300 388.665 " stroke="none" fill="#95cc4d" fill-rule="evenodd"></path></g></svg>